<svg width="40" height="40" viewBox="0 0 40 40" fill="none" xmlns="http://www.w3.org/2000/svg">
<mask id="path-1-outside-1_447_376" maskUnits="userSpaceOnUse" x="-0.333984" y="1" width="41" height="37" fill="black">
<rect fill="white" x="-0.333984" y="1" width="41" height="37"/>
<path d="M37.3993 2H7.7549C6.68715 2 5.82157 2.86287 5.82157 3.92727V12.9694C3.14841 13.1621 0.666016 13.969 0.666016 15.4909V34.7636C0.666016 36.529 4.00681 37.3333 7.11046 37.3333C9.3905 37.3333 11.793 36.8971 12.9105 35.9675C14.0279 36.8971 16.4304 37.3333 18.7104 37.3333C21.8141 37.3333 25.1549 36.529 25.1549 34.7636V24.4848H37.3993C38.4671 24.4848 39.3327 23.622 39.3327 22.5576V3.92727C39.3327 2.86287 38.4671 2 37.3993 2ZM7.11046 3.92727C7.11046 3.57247 7.39898 3.28485 7.7549 3.28485H37.3993C37.7552 3.28485 38.0438 3.57247 38.0438 3.92727V16.1333H13.5549V15.4909C13.5549 13.7255 10.2141 12.9212 7.11046 12.9212V3.92727ZM38.0438 19.9879H23.1474C21.7127 19.5375 20.2145 19.3206 18.7104 19.3455C16.9434 19.2869 15.1846 19.6104 13.5549 20.2937V17.4182H38.0438V19.9879ZM23.866 31.5515C23.866 31.8817 22.0931 32.8364 18.7104 32.8364C15.3278 32.8364 13.5549 31.8817 13.5549 31.5515V29.9609C15.1846 30.6441 16.9434 30.9676 18.7104 30.9091C20.4775 30.9676 22.2363 30.6441 23.866 29.9609V31.5515ZM23.866 21.9152C23.866 22.2454 22.0931 23.2 18.7104 23.2C15.3278 23.2 13.5549 22.2454 13.5549 21.9152C13.5549 21.5849 15.3278 20.6303 18.7104 20.6303C22.0931 20.6303 23.866 21.5849 23.866 21.9152ZM23.866 25.1273C23.866 25.4575 22.0931 26.4121 18.7104 26.4121C15.3278 26.4121 13.5549 25.4575 13.5549 25.1273V23.5366C15.1846 24.2199 16.9434 24.5434 18.7104 24.4848C20.4775 24.5434 22.2363 24.2199 23.866 23.5366V25.1273ZM12.266 18.703C12.266 19.0332 10.4931 19.9879 7.11046 19.9879C3.72777 19.9879 1.9549 19.0332 1.9549 18.703V17.1124C3.58464 17.7956 5.34343 18.1191 7.11046 18.0606C8.87748 18.1191 10.6363 17.7956 12.266 17.1124V18.703ZM7.11046 21.2727C8.87748 21.3312 10.6363 21.0078 12.266 20.3245V21.9152C12.266 22.2454 10.4931 23.2 7.11046 23.2C3.72777 23.2 1.9549 22.2454 1.9549 21.9152V20.3245C3.58464 21.0078 5.34343 21.3312 7.11046 21.2727ZM7.11046 24.4848C8.87748 24.5434 10.6363 24.2199 12.266 23.5366V25.1273C12.266 25.4575 10.4931 26.4121 7.11046 26.4121C3.72777 26.4121 1.9549 25.4575 1.9549 25.1273V23.5366C3.58464 24.2199 5.34343 24.5434 7.11046 24.4848ZM7.11046 27.697C8.87748 27.7555 10.6363 27.432 12.266 26.7487V28.3394C12.266 28.6696 10.4931 29.6242 7.11046 29.6242C3.72777 29.6242 1.9549 28.6696 1.9549 28.3394V26.7487C3.58464 27.432 5.34343 27.7555 7.11046 27.697ZM1.9549 29.9609C3.58464 30.6441 5.34343 30.9676 7.11046 30.9091C8.87748 30.9676 10.6363 30.6441 12.266 29.9609V31.5515C12.266 31.8817 10.4931 32.8364 7.11046 32.8364C3.72777 32.8364 1.9549 31.8817 1.9549 31.5515V29.9609ZM23.866 28.3394C23.866 28.6696 22.0931 29.6242 18.7104 29.6242C15.3278 29.6242 13.5549 28.6696 13.5549 28.3394V26.7487C15.1846 27.432 16.9434 27.7555 18.7104 27.697C20.4775 27.7555 22.2363 27.432 23.866 26.7487V28.3394ZM7.11046 14.2061C10.4931 14.2061 12.266 15.1607 12.266 15.4909C12.266 15.8211 10.4931 16.7758 7.11046 16.7758C3.72777 16.7758 1.9549 15.8211 1.9549 15.4909C1.9549 15.1607 3.72777 14.2061 7.11046 14.2061ZM7.11046 36.0485C3.72777 36.0485 1.9549 35.0938 1.9549 34.7636V33.173C3.58464 33.8562 5.34343 34.1797 7.11046 34.1212C8.87748 34.1797 10.6363 33.8562 12.266 33.173V34.7636C12.266 35.0938 10.4931 36.0485 7.11046 36.0485ZM18.7104 36.0485C15.3278 36.0485 13.5549 35.0938 13.5549 34.7636V33.173C15.1846 33.8562 16.9434 34.1797 18.7104 34.1212C20.4775 34.1797 22.2363 33.8562 23.866 33.173V34.7636C23.866 35.0938 22.0931 36.0485 18.7104 36.0485ZM37.3993 23.2H25.1549V21.9152C25.154 21.6906 25.0968 21.4697 24.9886 21.2727H38.0438V22.5576C38.0438 22.9124 37.7552 23.2 37.3993 23.2Z"/>
</mask>
<path d="M37.3993 2H7.7549C6.68715 2 5.82157 2.86287 5.82157 3.92727V12.9694C3.14841 13.1621 0.666016 13.969 0.666016 15.4909V34.7636C0.666016 36.529 4.00681 37.3333 7.11046 37.3333C9.3905 37.3333 11.793 36.8971 12.9105 35.9675C14.0279 36.8971 16.4304 37.3333 18.7104 37.3333C21.8141 37.3333 25.1549 36.529 25.1549 34.7636V24.4848H37.3993C38.4671 24.4848 39.3327 23.622 39.3327 22.5576V3.92727C39.3327 2.86287 38.4671 2 37.3993 2ZM7.11046 3.92727C7.11046 3.57247 7.39898 3.28485 7.7549 3.28485H37.3993C37.7552 3.28485 38.0438 3.57247 38.0438 3.92727V16.1333H13.5549V15.4909C13.5549 13.7255 10.2141 12.9212 7.11046 12.9212V3.92727ZM38.0438 19.9879H23.1474C21.7127 19.5375 20.2145 19.3206 18.7104 19.3455C16.9434 19.2869 15.1846 19.6104 13.5549 20.2937V17.4182H38.0438V19.9879ZM23.866 31.5515C23.866 31.8817 22.0931 32.8364 18.7104 32.8364C15.3278 32.8364 13.5549 31.8817 13.5549 31.5515V29.9609C15.1846 30.6441 16.9434 30.9676 18.7104 30.9091C20.4775 30.9676 22.2363 30.6441 23.866 29.9609V31.5515ZM23.866 21.9152C23.866 22.2454 22.0931 23.2 18.7104 23.2C15.3278 23.2 13.5549 22.2454 13.5549 21.9152C13.5549 21.5849 15.3278 20.6303 18.7104 20.6303C22.0931 20.6303 23.866 21.5849 23.866 21.9152ZM23.866 25.1273C23.866 25.4575 22.0931 26.4121 18.7104 26.4121C15.3278 26.4121 13.5549 25.4575 13.5549 25.1273V23.5366C15.1846 24.2199 16.9434 24.5434 18.7104 24.4848C20.4775 24.5434 22.2363 24.2199 23.866 23.5366V25.1273ZM12.266 18.703C12.266 19.0332 10.4931 19.9879 7.11046 19.9879C3.72777 19.9879 1.9549 19.0332 1.9549 18.703V17.1124C3.58464 17.7956 5.34343 18.1191 7.11046 18.0606C8.87748 18.1191 10.6363 17.7956 12.266 17.1124V18.703ZM7.11046 21.2727C8.87748 21.3312 10.6363 21.0078 12.266 20.3245V21.9152C12.266 22.2454 10.4931 23.2 7.11046 23.2C3.72777 23.2 1.9549 22.2454 1.9549 21.9152V20.3245C3.58464 21.0078 5.34343 21.3312 7.11046 21.2727ZM7.11046 24.4848C8.87748 24.5434 10.6363 24.2199 12.266 23.5366V25.1273C12.266 25.4575 10.4931 26.4121 7.11046 26.4121C3.72777 26.4121 1.9549 25.4575 1.9549 25.1273V23.5366C3.58464 24.2199 5.34343 24.5434 7.11046 24.4848ZM7.11046 27.697C8.87748 27.7555 10.6363 27.432 12.266 26.7487V28.3394C12.266 28.6696 10.4931 29.6242 7.11046 29.6242C3.72777 29.6242 1.9549 28.6696 1.9549 28.3394V26.7487C3.58464 27.432 5.34343 27.7555 7.11046 27.697ZM1.9549 29.9609C3.58464 30.6441 5.34343 30.9676 7.11046 30.9091C8.87748 30.9676 10.6363 30.6441 12.266 29.9609V31.5515C12.266 31.8817 10.4931 32.8364 7.11046 32.8364C3.72777 32.8364 1.9549 31.8817 1.9549 31.5515V29.9609ZM23.866 28.3394C23.866 28.6696 22.0931 29.6242 18.7104 29.6242C15.3278 29.6242 13.5549 28.6696 13.5549 28.3394V26.7487C15.1846 27.432 16.9434 27.7555 18.7104 27.697C20.4775 27.7555 22.2363 27.432 23.866 26.7487V28.3394ZM7.11046 14.2061C10.4931 14.2061 12.266 15.1607 12.266 15.4909C12.266 15.8211 10.4931 16.7758 7.11046 16.7758C3.72777 16.7758 1.9549 15.8211 1.9549 15.4909C1.9549 15.1607 3.72777 14.2061 7.11046 14.2061ZM7.11046 36.0485C3.72777 36.0485 1.9549 35.0938 1.9549 34.7636V33.173C3.58464 33.8562 5.34343 34.1797 7.11046 34.1212C8.87748 34.1797 10.6363 33.8562 12.266 33.173V34.7636C12.266 35.0938 10.4931 36.0485 7.11046 36.0485ZM18.7104 36.0485C15.3278 36.0485 13.5549 35.0938 13.5549 34.7636V33.173C15.1846 33.8562 16.9434 34.1797 18.7104 34.1212C20.4775 34.1797 22.2363 33.8562 23.866 33.173V34.7636C23.866 35.0938 22.0931 36.0485 18.7104 36.0485ZM37.3993 23.2H25.1549V21.9152C25.154 21.6906 25.0968 21.4697 24.9886 21.2727H38.0438V22.5576C38.0438 22.9124 37.7552 23.2 37.3993 23.2Z" fill="#F50E30"/>
<path d="M37.3993 2H7.7549C6.68715 2 5.82157 2.86287 5.82157 3.92727V12.9694C3.14841 13.1621 0.666016 13.969 0.666016 15.4909V34.7636C0.666016 36.529 4.00681 37.3333 7.11046 37.3333C9.3905 37.3333 11.793 36.8971 12.9105 35.9675C14.0279 36.8971 16.4304 37.3333 18.7104 37.3333C21.8141 37.3333 25.1549 36.529 25.1549 34.7636V24.4848H37.3993C38.4671 24.4848 39.3327 23.622 39.3327 22.5576V3.92727C39.3327 2.86287 38.4671 2 37.3993 2ZM7.11046 3.92727C7.11046 3.57247 7.39898 3.28485 7.7549 3.28485H37.3993C37.7552 3.28485 38.0438 3.57247 38.0438 3.92727V16.1333H13.5549V15.4909C13.5549 13.7255 10.2141 12.9212 7.11046 12.9212V3.92727ZM38.0438 19.9879H23.1474C21.7127 19.5375 20.2145 19.3206 18.7104 19.3455C16.9434 19.2869 15.1846 19.6104 13.5549 20.2937V17.4182H38.0438V19.9879ZM23.866 31.5515C23.866 31.8817 22.0931 32.8364 18.7104 32.8364C15.3278 32.8364 13.5549 31.8817 13.5549 31.5515V29.9609C15.1846 30.6441 16.9434 30.9676 18.7104 30.9091C20.4775 30.9676 22.2363 30.6441 23.866 29.9609V31.5515ZM23.866 21.9152C23.866 22.2454 22.0931 23.2 18.7104 23.2C15.3278 23.2 13.5549 22.2454 13.5549 21.9152C13.5549 21.5849 15.3278 20.6303 18.7104 20.6303C22.0931 20.6303 23.866 21.5849 23.866 21.9152ZM23.866 25.1273C23.866 25.4575 22.0931 26.4121 18.7104 26.4121C15.3278 26.4121 13.5549 25.4575 13.5549 25.1273V23.5366C15.1846 24.2199 16.9434 24.5434 18.7104 24.4848C20.4775 24.5434 22.2363 24.2199 23.866 23.5366V25.1273ZM12.266 18.703C12.266 19.0332 10.4931 19.9879 7.11046 19.9879C3.72777 19.9879 1.9549 19.0332 1.9549 18.703V17.1124C3.58464 17.7956 5.34343 18.1191 7.11046 18.0606C8.87748 18.1191 10.6363 17.7956 12.266 17.1124V18.703ZM7.11046 21.2727C8.87748 21.3312 10.6363 21.0078 12.266 20.3245V21.9152C12.266 22.2454 10.4931 23.2 7.11046 23.2C3.72777 23.2 1.9549 22.2454 1.9549 21.9152V20.3245C3.58464 21.0078 5.34343 21.3312 7.11046 21.2727ZM7.11046 24.4848C8.87748 24.5434 10.6363 24.2199 12.266 23.5366V25.1273C12.266 25.4575 10.4931 26.4121 7.11046 26.4121C3.72777 26.4121 1.9549 25.4575 1.9549 25.1273V23.5366C3.58464 24.2199 5.34343 24.5434 7.11046 24.4848ZM7.11046 27.697C8.87748 27.7555 10.6363 27.432 12.266 26.7487V28.3394C12.266 28.6696 10.4931 29.6242 7.11046 29.6242C3.72777 29.6242 1.9549 28.6696 1.9549 28.3394V26.7487C3.58464 27.432 5.34343 27.7555 7.11046 27.697ZM1.9549 29.9609C3.58464 30.6441 5.34343 30.9676 7.11046 30.9091C8.87748 30.9676 10.6363 30.6441 12.266 29.9609V31.5515C12.266 31.8817 10.4931 32.8364 7.11046 32.8364C3.72777 32.8364 1.9549 31.8817 1.9549 31.5515V29.9609ZM23.866 28.3394C23.866 28.6696 22.0931 29.6242 18.7104 29.6242C15.3278 29.6242 13.5549 28.6696 13.5549 28.3394V26.7487C15.1846 27.432 16.9434 27.7555 18.7104 27.697C20.4775 27.7555 22.2363 27.432 23.866 26.7487V28.3394ZM7.11046 14.2061C10.4931 14.2061 12.266 15.1607 12.266 15.4909C12.266 15.8211 10.4931 16.7758 7.11046 16.7758C3.72777 16.7758 1.9549 15.8211 1.9549 15.4909C1.9549 15.1607 3.72777 14.2061 7.11046 14.2061ZM7.11046 36.0485C3.72777 36.0485 1.9549 35.0938 1.9549 34.7636V33.173C3.58464 33.8562 5.34343 34.1797 7.11046 34.1212C8.87748 34.1797 10.6363 33.8562 12.266 33.173V34.7636C12.266 35.0938 10.4931 36.0485 7.11046 36.0485ZM18.7104 36.0485C15.3278 36.0485 13.5549 35.0938 13.5549 34.7636V33.173C15.1846 33.8562 16.9434 34.1797 18.7104 34.1212C20.4775 34.1797 22.2363 33.8562 23.866 33.173V34.7636C23.866 35.0938 22.0931 36.0485 18.7104 36.0485ZM37.3993 23.2H25.1549V21.9152C25.154 21.6906 25.0968 21.4697 24.9886 21.2727H38.0438V22.5576C38.0438 22.9124 37.7552 23.2 37.3993 23.2Z" stroke="#F50E30" stroke-width="0.8" mask="url(#path-1-outside-1_447_376)"/>
<path d="M33.3312 11.8667H33.3319C35.2833 11.8667 36.8652 10.2847 36.8652 8.33333C36.8652 6.38193 35.2833 4.8 33.3319 4.8L33.3312 4.8C32.6175 4.80236 31.9228 5.02283 31.3395 5.43C30.1239 4.58631 28.5034 4.58777 27.2864 5.44796C26.0285 6.33706 25.4915 7.93867 25.9593 9.40635C26.4271 10.874 27.7918 11.8695 29.3323 11.8667C30.051 11.8653 30.7509 11.6449 31.3395 11.2367C31.9228 11.6438 32.6175 11.8643 33.3312 11.8667ZM35.1319 8.33333C35.1319 9.32745 34.326 10.1333 33.3319 10.1333C32.3378 10.1333 31.5319 9.32745 31.5319 8.33333C31.5319 7.33922 32.3378 6.53333 33.3319 6.53333C34.326 6.53333 35.1319 7.33922 35.1319 8.33333ZM29.3312 6.53333C29.6305 6.53507 29.9236 6.61203 30.1839 6.75586C29.6704 7.74379 29.6701 8.9212 30.1831 9.90931C29.5682 10.242 28.8082 10.1891 28.2427 9.7595C27.6283 9.29283 27.3806 8.48593 27.6274 7.75495C27.8741 7.0241 28.5599 6.53241 29.3312 6.53333Z" fill="#F50E30" stroke="#F50E30" stroke-width="0.4"/>
<path d="M15.9987 14.6333H16.6654C17.1992 14.6333 17.632 14.2005 17.632 13.6667C17.632 13.1328 17.1992 12.7 16.6654 12.7H15.9987C15.4648 12.7 15.032 13.1328 15.032 13.6667C15.032 14.2005 15.4648 14.6333 15.9987 14.6333Z" fill="#F50E30" stroke="#F50E30" stroke-width="0.6"/>
<path d="M19.3327 14.6333H19.9993C20.5332 14.6333 20.966 14.2005 20.966 13.6667C20.966 13.1328 20.5332 12.7 19.9993 12.7H19.3327C18.7988 12.7 18.366 13.1328 18.366 13.6667C18.366 14.2005 18.7988 14.6333 19.3327 14.6333Z" fill="#F50E30" stroke="#F50E30" stroke-width="0.6"/>
<path d="M22.6667 14.6333H23.3333C23.8672 14.6333 24.3 14.2005 24.3 13.6667C24.3 13.1328 23.8672 12.7 23.3333 12.7H22.6667C22.1328 12.7 21.7 13.1328 21.7 13.6667C21.7 14.2005 22.1328 14.6333 22.6667 14.6333Z" fill="#F50E30" stroke="#F50E30" stroke-width="0.6"/>
</svg>
