<svg width="138" height="47" viewBox="0 0 138 47" fill="none" xmlns="http://www.w3.org/2000/svg">
<g clip-path="url(#clip0_3_68)">
<path d="M68.9928 24.1921C68.3797 24.1858 67.7785 24.0258 67.2465 23.7275C66.7146 23.4292 66.2695 23.0025 65.9538 22.488C65.9312 22.4399 65.8961 22.3984 65.852 22.3675C65.8079 22.3367 65.7564 22.3177 65.7025 22.3124C65.0958 22.2491 64.5342 21.9693 64.1248 21.5264C63.7155 21.0836 63.487 20.5087 63.4831 19.9115C63.485 19.3124 63.7081 18.7342 64.1112 18.2835L66.6118 15.8416C66.6845 15.7736 66.7421 15.6918 66.7812 15.6011C66.8203 15.5105 66.8401 15.413 66.8392 15.3146C66.8402 15.1646 66.7823 15.02 66.6776 14.9105C66.5653 14.8045 66.415 14.7456 66.2589 14.7466C66.1588 14.7465 66.0599 14.7668 65.9682 14.8061C65.8766 14.8454 65.7943 14.9029 65.7265 14.9749L63.2498 17.4344C62.7937 17.8389 62.2021 18.066 61.5867 18.0727C60.9663 18.0717 60.369 17.8423 59.9135 17.43C59.458 17.0177 59.1776 16.4528 59.128 15.8475C59.122 15.7941 59.1017 15.7433 59.0691 15.7001C59.0365 15.6569 58.9929 15.6229 58.9426 15.6015C58.41 15.2985 57.9676 14.8647 57.6591 14.3428C57.3505 13.8209 57.1867 13.2292 57.1836 12.6263C57.1806 12.0234 57.3385 11.4301 57.6418 10.9054C57.9451 10.3806 58.3832 9.94244 58.9127 9.63437C58.9619 9.60853 59.0043 9.57177 59.0365 9.52704C59.0687 9.48231 59.0898 9.43083 59.0981 9.37671C59.1604 8.78501 59.4407 8.23576 59.8866 7.83162C60.3325 7.42748 60.9134 7.19611 61.5209 7.18075C62.125 7.18712 62.7091 7.39352 63.178 7.76634C63.4652 7.98301 65.3316 9.86274 65.6966 10.2317C65.7644 10.3032 65.8469 10.36 65.9386 10.3983C66.0303 10.4366 66.1293 10.4557 66.229 10.4542C66.3089 10.4594 66.389 10.4478 66.464 10.4202C66.539 10.3926 66.6071 10.3496 66.6637 10.2942C66.7204 10.2387 66.7642 10.1721 66.7924 10.0987C66.8206 10.0253 66.8325 9.94684 66.8272 9.8686C66.8284 9.77016 66.8089 9.67252 66.7698 9.58183C66.7307 9.49114 66.6728 9.40935 66.5999 9.34158L64.0813 6.91137C63.771 6.58125 63.5609 6.173 63.4745 5.73245C63.3882 5.2919 63.429 4.83651 63.5924 4.41741C63.7559 3.99832 64.0354 3.63211 64.3997 3.35994C64.764 3.08778 65.1986 2.92042 65.6547 2.87666C65.7102 2.87177 65.7634 2.85233 65.8087 2.82039C65.854 2.78845 65.8896 2.74519 65.9119 2.69513C66.2269 2.1744 66.6749 1.74292 67.212 1.44321C67.7491 1.14351 68.3566 0.985901 68.9748 0.985901C69.593 0.985901 70.2006 1.14351 70.7377 1.44321C71.2747 1.74292 71.7228 2.1744 72.0378 2.69513C72.0609 2.7441 72.0969 2.78616 72.1421 2.81703C72.1873 2.8479 72.2401 2.86645 72.295 2.8708C72.7499 2.91676 73.1828 3.08509 73.5459 3.35712C73.909 3.62915 74.1881 3.99429 74.3523 4.41205C74.5164 4.82981 74.5592 5.28389 74.4759 5.724C74.3926 6.1641 74.1865 6.57306 73.8803 6.90552L73.7786 7.00506C73.4436 7.32128 72.2053 8.51588 71.3558 9.34742C71.2816 9.41579 71.2226 9.4984 71.1824 9.59009C71.1423 9.68177 71.1219 9.78056 71.1225 9.88031C71.1231 10.0311 71.1831 10.1758 71.29 10.2844C71.4018 10.3869 71.5496 10.4434 71.7028 10.4425C71.8029 10.4448 71.9025 10.4268 71.9952 10.3895C72.0879 10.3522 72.1716 10.2964 72.2412 10.2258C73.2342 9.24201 73.7367 8.75012 74.7358 7.77218C75.1987 7.37324 75.794 7.15264 76.4108 7.15146C77.0245 7.15314 77.6156 7.37833 78.069 7.78317C78.5224 8.18802 78.8056 8.74354 78.8635 9.34158C78.869 9.39432 78.8884 9.44475 78.9199 9.48788C78.9514 9.53102 78.9938 9.56536 79.043 9.58751C79.5709 9.8975 80.0073 10.3366 80.3093 10.8617C80.6113 11.3868 80.7686 11.9798 80.7655 12.5824C80.7625 13.1849 80.5994 13.7764 80.2921 14.2986C79.9849 14.8207 79.5441 15.2556 79.0131 15.5605C78.9636 15.5814 78.9205 15.6145 78.888 15.6566C78.8554 15.6987 78.8347 15.7483 78.8277 15.8006C78.7821 16.246 78.6109 16.6701 78.3333 17.0257C78.0556 17.3812 77.6823 17.6541 77.2553 17.8139C76.8282 17.9738 76.3641 18.0141 75.915 17.9306C75.4658 17.847 75.0492 17.6428 74.7118 17.3407C74.6281 17.2704 74.5025 17.1475 74.311 16.9542L72.289 14.9339C72.2178 14.8635 72.133 14.8075 72.0396 14.7693C71.9462 14.7311 71.8459 14.7114 71.7446 14.7114C71.5935 14.7119 71.4482 14.7684 71.3378 14.8695C71.2273 14.9786 71.165 15.1258 71.1644 15.2794C71.1639 15.3783 71.1844 15.4762 71.2245 15.5669C71.2647 15.6576 71.3236 15.7392 71.3977 15.8065L73.8983 18.2425C74.2063 18.577 74.4133 18.9888 74.4962 19.4318C74.5791 19.8747 74.5346 20.3316 74.3677 20.7513C74.2008 21.1709 73.9181 21.537 73.551 21.8085C73.184 22.08 72.747 22.2464 72.289 22.2889C72.2352 22.2919 72.1833 22.3094 72.139 22.3393C72.0947 22.3693 72.0597 22.4106 72.0378 22.4588C71.7252 22.9795 71.2808 23.4126 70.7474 23.7162C70.2141 24.0198 69.6097 24.1837 68.9928 24.1921Z" fill="white"/>
<path d="M75.2815 26.9728V27.412C75.5593 27.3911 75.8382 27.4352 76.0951 27.5409C76.2506 27.6287 76.3284 27.7282 76.3284 27.8512C76.3261 27.9297 76.3035 28.0062 76.2626 28.0737C76.2213 28.1424 76.1872 28.215 76.1609 28.2904L69.1138 40.0022L62.0726 28.2904C62.0416 28.216 62.0056 28.1436 61.9649 28.0737C61.9241 28.0062 61.9014 27.9297 61.8991 27.8512C61.8991 27.7282 61.9829 27.6287 62.1324 27.5409C62.3893 27.4352 62.6682 27.3911 62.946 27.412V26.9728H55.4682V27.412C55.8011 27.3714 56.1373 27.4573 56.4074 27.6521C56.4876 27.7381 56.5495 27.8388 56.5895 27.9483C56.6296 28.0579 56.647 28.1742 56.6407 28.2904L54.9418 44.9387C54.9528 45.1722 54.8713 45.4008 54.7144 45.577C54.4414 45.7706 54.1039 45.8563 53.7692 45.8171V46.2563H58.3576L58.4833 45.1495C58.4833 45.0793 60.1344 30.4454 60.1344 30.4454L60.26 30.3692L69.1018 45.7878L77.9436 30.3692L78.0693 30.4454C78.0693 30.4454 79.7323 45.0851 79.7204 45.1495L79.846 46.2563H84.4344V45.8171C84.1015 45.8577 83.7653 45.7718 83.4952 45.577C83.3344 45.4027 83.2506 45.1733 83.2619 44.9387L81.5749 28.2787C81.5686 28.1625 81.586 28.0462 81.6261 27.9366C81.6661 27.8271 81.728 27.7264 81.8082 27.6404C82.0788 27.4467 82.4146 27.3609 82.7474 27.4003V26.9728H75.2815ZM37.8324 30.0296L42.2773 38.6846H33.3696L37.8324 30.0296ZM37.8324 26.9494H34.8413V27.3886C35.26 27.3886 35.4694 27.535 35.4694 27.8278C35.454 28.0359 35.3862 28.2371 35.272 28.4134C35.1404 28.6418 34.9729 28.9697 34.7575 29.3855L27.178 43.9549L26.6276 44.9856C26.5245 45.1815 26.4002 45.3661 26.2567 45.536C26.1567 45.6442 26.0251 45.7198 25.8798 45.7527C25.6977 45.7795 25.5136 45.7913 25.3295 45.7878V46.227H30.8092V45.7878C30.5893 45.8116 30.3673 45.7665 30.1751 45.659C30.1214 45.6112 30.0795 45.5522 30.0525 45.4862C30.0256 45.4203 30.0143 45.3492 30.0196 45.2784C30.0243 45.1445 30.0568 45.013 30.1153 44.8919C30.1871 44.7572 30.3187 44.4702 30.534 44.0311L32.0296 41.1031H43.6173L45.1129 44.0311C45.3282 44.4702 45.4598 44.7572 45.5316 44.8919C45.5929 45.012 45.6256 45.1441 45.6273 45.2784C45.6326 45.3492 45.6213 45.4203 45.5944 45.4862C45.5674 45.5522 45.5255 45.6112 45.4718 45.659C45.2797 45.7665 45.0576 45.8116 44.8377 45.7878V46.227H50.3174V45.7878C50.1333 45.7913 49.9492 45.7795 49.7671 45.7527C49.6218 45.7198 49.4903 45.6442 49.3902 45.536C49.2466 45.365 49.1203 45.1806 49.0133 44.9856C48.8877 44.7396 48.7022 44.4 48.463 43.9549L40.8954 29.3562C40.686 28.9404 40.5185 28.6125 40.3869 28.3841C40.2727 28.2078 40.2049 28.0067 40.1894 27.7985C40.1894 27.5057 40.3889 27.3593 40.7877 27.3593V26.9201L37.8324 26.9494ZM105.707 26.9494V27.3886C105.846 27.3725 105.987 27.3857 106.12 27.4271C106.253 27.4685 106.375 27.5372 106.479 27.6287C106.621 27.8137 106.693 28.0415 106.682 28.2728L108.824 38.7373C109.057 40.3418 108.597 41.8819 107.101 42.5964C105.606 43.3108 103.135 43.5801 100.874 43.5801C98.6124 43.5801 96.0879 43.2756 94.6402 42.5964C93.1924 41.9171 92.684 40.3418 92.9113 38.7373L95.0649 28.2728C95.0524 28.0422 95.1222 27.8145 95.2623 27.6287C95.367 27.5367 95.4905 27.4678 95.6247 27.4264C95.7588 27.3849 95.9004 27.3721 96.04 27.3886V26.9494H90.656V27.3886C90.7938 27.3719 90.9336 27.3847 91.0658 27.4261C91.1981 27.4676 91.3195 27.5367 91.4217 27.6287C91.5685 27.8117 91.6428 28.0404 91.6311 28.2728L89.3758 38.6846C88.6399 42.1162 90.973 45.0617 95.1487 45.9049C97.0334 46.2111 98.9394 46.3755 100.85 46.3968H100.886C102.794 46.3758 104.698 46.2113 106.581 45.9049C110.768 45.0617 113.09 42.1162 112.354 38.6846L110.08 28.2728C110.069 28.0404 110.143 27.8117 110.29 27.6287C110.393 27.5366 110.516 27.4674 110.649 27.426C110.782 27.3845 110.923 27.3718 111.062 27.3886V26.9494H105.707ZM7.15529 27.4999C5.75002 27.9572 4.44079 28.6595 3.29075 29.5728C2.27046 30.3904 1.43862 31.4103 0.849974 32.5652C0.287398 33.6689 -0.0035181 34.8862 0.000491566 36.1197C-0.0139003 37.5249 0.28789 38.916 0.884443 40.1943C1.48099 41.4725 2.35767 42.6065 3.45226 43.5157C4.60292 44.4655 5.93482 45.182 7.37066 45.6239C9.00303 46.1298 10.7076 46.3769 12.4197 46.3558C13.8387 46.3811 15.2554 46.2336 16.6372 45.9167C17.6234 45.6849 18.5804 45.3471 19.4908 44.9094C20.1014 44.6142 20.6823 44.2632 21.2256 43.8612C21.452 43.635 21.7312 43.4662 22.0392 43.3693C22.1524 43.3647 22.2652 43.3855 22.3689 43.4302C22.4726 43.4749 22.5644 43.5422 22.6374 43.627L23.1519 43.2932L20.2326 39.7797L19.7181 40.0725C19.787 40.1396 19.8407 40.2202 19.8757 40.309C19.9108 40.3977 19.9264 40.4927 19.9215 40.5878C19.8427 40.96 19.6305 41.2923 19.3233 41.5247C18.847 41.9594 18.3163 42.3333 17.7439 42.6373C17.0259 43.0307 16.2654 43.3449 15.4766 43.5743C14.6022 43.8349 13.6927 43.9652 12.7786 43.9608C11.5798 43.9606 10.3886 43.7749 9.24909 43.4103C8.15234 43.0651 7.12145 42.5447 6.19813 41.8702C5.32493 41.241 4.5921 40.444 4.04451 39.5279C3.50526 38.6069 3.22649 37.5618 3.23691 36.5004C3.20563 35.3569 3.4777 34.2251 4.02656 33.2152C4.52549 32.3272 5.21784 31.5575 6.05456 30.9607C6.91434 30.3625 7.87678 29.9202 8.89614 29.6548C9.93023 29.3828 10.996 29.243 12.0668 29.2391C13.0627 29.2311 14.0563 29.3352 15.028 29.5494C15.8456 29.7259 16.6461 29.9708 17.4209 30.2814C17.9976 30.501 18.541 30.7965 19.0361 31.1598C19.4369 31.4702 19.6343 31.7454 19.6343 31.9152C19.6378 32.0029 19.6226 32.0904 19.5896 32.1721C19.5567 32.2538 19.5067 32.3278 19.4429 32.3895L19.9514 32.6121L22.3981 28.6886L21.9255 28.39L21.7281 28.63C21.6743 28.6945 21.5427 28.7237 21.3333 28.7237C20.983 28.6756 20.6434 28.5707 20.3283 28.4134C19.8377 28.2026 19.2156 27.98 18.4558 27.7341C17.5764 27.4579 16.6816 27.2311 15.7758 27.0548C14.6194 26.8317 13.4427 26.7257 12.2642 26.7386C10.531 26.7144 8.80594 26.9757 7.16128 27.5116M124.115 27.1836C122.989 27.4351 121.906 27.8412 120.896 28.39C120.054 28.8525 119.322 29.4853 118.749 30.2463C118.232 30.9439 117.957 31.7854 117.965 32.6472C117.921 33.2188 117.996 33.7932 118.185 34.3357C118.374 34.8783 118.674 35.3776 119.066 35.8035C119.849 36.5391 120.814 37.0636 121.866 37.326C123.079 37.6419 124.33 37.8013 125.587 37.8004C126.938 37.8004 128.225 37.8004 129.433 37.8004C130.125 37.797 130.816 37.8342 131.503 37.9116C132.081 37.969 132.65 38.0969 133.196 38.2923C133.642 38.4518 134.036 38.7247 134.339 39.0828C134.623 39.4507 134.769 39.9039 134.751 40.3653C134.741 40.9123 134.58 41.4464 134.285 41.9113C133.99 42.3761 133.573 42.7544 133.076 43.0063C131.96 43.6895 130.153 44.033 127.656 44.0369C126.689 44.0361 125.725 43.938 124.779 43.7441C123.912 43.5681 123.063 43.3153 122.242 42.9887C121.599 42.7369 120.995 42.3978 120.448 41.9815C120.26 41.8646 120.101 41.7084 119.982 41.5241C119.863 41.3399 119.787 41.1321 119.76 40.9157C119.762 40.7507 119.803 40.5885 119.879 40.4414L119.365 40.1779L117.235 44.4L117.63 44.6225C117.731 44.4979 117.857 44.3947 118 44.3191C118.143 44.2436 118.3 44.1974 118.462 44.1833C118.862 44.2138 119.251 44.3319 119.598 44.5288C120.077 44.763 120.675 45.0207 121.393 45.3018C122.26 45.619 123.152 45.8639 124.061 46.0338C125.276 46.2556 126.51 46.3595 127.746 46.3441C129.236 46.3651 130.723 46.2058 132.173 45.8698C133.314 45.6091 134.402 45.1617 135.391 44.5464C136.184 44.0591 136.851 43.3999 137.342 42.6198C137.761 41.9392 137.985 41.1601 137.988 40.3653C138.076 39.1551 137.682 37.9585 136.887 37.0274C136.116 36.2482 135.151 35.6791 134.087 35.376C132.886 35.0172 131.64 34.8202 130.384 34.7905C129.044 34.7553 127.756 34.7378 126.52 34.7378C125.784 34.7378 125.096 34.7085 124.45 34.6616C123.875 34.6263 123.306 34.5221 122.757 34.3513C122.327 34.2248 121.935 33.9977 121.614 33.6895C121.474 33.5388 121.365 33.3625 121.294 33.1705C121.223 32.9786 121.192 32.7749 121.201 32.5711C121.201 31.5482 121.824 30.7167 123.068 30.0764C124.657 29.3719 126.393 29.0449 128.135 29.122C129.016 29.1165 129.896 29.1969 130.761 29.362C131.468 29.4933 132.161 29.6893 132.831 29.9476C133.307 30.1251 133.756 30.3655 134.165 30.662C134.482 30.908 134.638 31.1129 134.638 31.2828C134.646 31.4437 134.634 31.6049 134.602 31.7629L135.039 32.0206L137.204 27.7985L136.731 27.617C136.606 27.7349 136.474 27.8463 136.337 27.9508C136.156 28.0556 135.948 28.1065 135.738 28.0972C135.399 28.081 135.064 28.0056 134.751 27.8746C134.357 27.7282 133.86 27.5701 133.25 27.4003C132.543 27.2021 131.826 27.0418 131.102 26.9201C130.132 26.7614 129.149 26.6869 128.165 26.6976C126.814 26.6893 125.466 26.8387 124.151 27.1427" fill="white"/>
</g>
<defs>
<clipPath id="clip0_3_68">
<rect width="138" height="47" fill="white"/>
</clipPath>
</defs>
</svg>
